# xmcd
#
# Track frame offsets: 
#        150
#        12417
#        29776
#        50818
#        60988
#        73277
#        82799
#        98511
#        118471
#        134758
#        147300
#        168682
#        190144
#
# Disc length: 2690 seconds
#
# Revision: 0
# Processed by: cddbd v1.5.2PL0 Copyright (c) Steve Scherf et al.
# Submitted via: ExactAudioCopy v1.0b1
#
DISCID=c60a800d
DTITLE=Elvis Presley  - Pure Diamonds Vol 2  
DYEAR=1900
DGENRE=
TTITLE0=When I'm Over You
TTITLE1=Make The World Go Away
TTITLE2=Funny How Time Slips Away
TTITLE3=Snowbird
TTITLE4=Where Did They Go, Lord
TTITLE5=Rags To Riches
TTITLE6=The Sound Of Your Cry
TTITLE7=I Washed My Hands In Muddy Water
TTITLE8=Patch It Up
TTITLE9=It Ain't No Big Thing (But It's Growing)
TTITLE10=Bridge Over Troubled Water
TTITLE11=I Got My Mojo Working
TTITLE12=Cindy, Cindy
EXTD=
EXTT0=
EXTT1=
EXTT2=
EXTT3=
EXTT4=
EXTT5=
EXTT6=
EXTT7=
EXTT8=
EXTT9=
EXTT10=
EXTT11=
EXTT12=
PLAYORDER=
